<?xml version="1.0" encoding="utf-8"?>
<!-- Generator: Adobe Illustrator 16.0.0, SVG Export Plug-In . SVG Version: 6.00 Build 0)  -->
<!DOCTYPE svg PUBLIC "-//W3C//DTD SVG 1.1//EN" "http://www.w3.org/Graphics/SVG/1.1/DTD/svg11.dtd">
<svg version="1.1" id="Layer_1" xmlns="http://www.w3.org/2000/svg" xmlns:xlink="http://www.w3.org/1999/xlink" x="0px" y="0px"
	 width="393px" height="245px" viewBox="0 0 393 245" enable-background="new 0 0 393 245" xml:space="preserve">
<path fill="#A91F23" d="M0.57,243.964V119.26l77.104,124.704H0.57z M0.57,82.829V1.036h106.885l71.209,116.182l-78.616,126.251
	L0.57,82.829z"/>
<polygon opacity="0.65" fill="#A91F23" points="184.995,102.041 248.932,1.036 321.894,1.036 321.894,243.48 184.995,243.48 "/>
<path fill="#A91F23" d="M248.974,243.48V1.036H317.4c13.911,0,24.909,1.284,32.989,3.845c8.079,2.56,15.494,7.069,22.246,13.53
	c6.136,5.838,10.794,12.551,13.961,20.137c3.274,7.994,4.911,16.144,4.911,24.444c0,18.552-6.595,33.463-19.793,44.739
	c-3.784,3.382-7.465,5.996-11.048,7.842c-3.169,1.74-9,3.994-17.488,6.763v0.616c7.263,2.458,12.99,4.764,17.185,6.919
	c3.783,1.944,7.567,4.661,11.352,8.145c13.808,12.299,20.716,27.829,20.716,46.585c0,8.093-1.587,15.627-4.758,22.598
	c-3.174,7.174-7.567,13.479-13.196,18.909c-5.828,5.744-12.222,9.995-19.178,12.761c-7.158,3.075-14.881,4.613-23.169,4.613H248.974
	z"/>
</svg>
