<?xml version="1.0" encoding="utf-8"?>
<!-- Generator: Adobe Illustrator 16.0.0, SVG Export Plug-In . SVG Version: 6.00 Build 0)  -->
<!DOCTYPE svg PUBLIC "-//W3C//DTD SVG 1.1//EN" "http://www.w3.org/Graphics/SVG/1.1/DTD/svg11.dtd">
<svg version="1.1" id="Layer_1" xmlns="http://www.w3.org/2000/svg" xmlns:xlink="http://www.w3.org/1999/xlink" x="0px" y="0px"
	 width="200px" height="124px" viewBox="96.5 60.5 200 124" enable-background="new 96.5 60.5 200 124" xml:space="preserve">
<path fill="#A91F23" d="M97.354,183.964V120.86l39.017,63.104H97.354z M97.354,102.425V61.036h54.086l36.034,58.791l-39.782,63.886
	L97.354,102.425z"/>
<polygon opacity="0.65" fill="#A91F23" enable-background="new    " points="190.678,112.147 223.032,61.036 259.952,61.036 
	259.952,183.719 190.678,183.719 "/>
<path fill="#A91F23" d="M223.054,183.719V61.036h34.625c7.039,0,12.604,0.649,16.693,1.945c4.088,1.296,7.84,3.578,11.257,6.847
	c3.104,2.954,5.462,6.351,7.064,10.19c1.657,4.045,2.485,8.169,2.485,12.37c0,9.388-3.337,16.933-10.016,22.639
	c-1.915,1.711-3.777,3.034-5.591,3.969c-1.604,0.88-4.554,2.021-8.85,3.422v0.312c3.676,1.244,6.573,2.411,8.696,3.502
	c1.914,0.982,3.829,2.358,5.744,4.121c6.987,6.224,10.483,14.082,10.483,23.573c0,4.095-0.804,7.908-2.408,11.436
	c-1.605,3.63-3.828,6.82-6.678,9.567c-2.948,2.907-6.185,5.059-9.704,6.458c-3.622,1.556-7.53,2.335-11.724,2.335h-42.079V183.719z"
	/>
</svg>
