<?xml version="1.0" encoding="utf-8"?>
<!-- Generator: Adobe Illustrator 16.0.0, SVG Export Plug-In . SVG Version: 6.00 Build 0)  -->
<!DOCTYPE svg PUBLIC "-//W3C//DTD SVG 1.1//EN" "http://www.w3.org/Graphics/SVG/1.1/DTD/svg11.dtd">
<svg version="1.1" xmlns="http://www.w3.org/2000/svg" xmlns:xlink="http://www.w3.org/1999/xlink" x="0px" y="0px" width="144px"
	 height="164px" viewBox="0 0 144 164" enable-background="new 0 0 144 164" xml:space="preserve">
<g id="Layer_1">
	<image overflow="visible" width="50" height="55" xlink:href="753A8FF7.png"  transform="matrix(2.875 0 0 2.9818 0 0)">
	</image>
</g>
<g id="Layer_2">
	<polygon fill="#2162AF" points="0.25,0.427 14.75,147.927 72.247,163.573 132.25,147.427 143.75,0.427 	"/>
	<polygon fill="#369CD6" points="72.247,11.427 72.247,149.927 121.75,136.427 132.25,11.427 	"/>
	<polygon fill="#FFFFFF" points="28.25,31.927 113.583,31.927 113.583,47.927 74.25,67.927 108.917,67.927 106.583,121.594 
		72.247,135.594 35.25,122.594 35.583,93.927 51.25,93.927 51.583,107.594 71.875,116.26 91.583,105.594 91.25,86.927 
		34.919,87.594 34.586,73.934 74.92,48.261 28.25,48.927 	"/>
</g>
</svg>
