<?xml version="1.0" encoding="utf-8"?>
<!-- Generator: Adobe Illustrator 16.0.0, SVG Export Plug-In . SVG Version: 6.00 Build 0)  -->
<!DOCTYPE svg PUBLIC "-//W3C//DTD SVG 1.1//EN" "http://www.w3.org/Graphics/SVG/1.1/DTD/svg11.dtd">
<svg version="1.1" xmlns="http://www.w3.org/2000/svg" xmlns:xlink="http://www.w3.org/1999/xlink" x="0px" y="0px" width="144px"
	 height="164px" viewBox="0 0 144 164" enable-background="new 0 0 144 164" xml:space="preserve">
<g id="Layer_1">
</g>
<g id="Layer_2">
	<circle fill="#353535" cx="72.13" cy="82" r="70.192"/>
	<g>
		<path fill="#FFFFFF" d="M12.94,84.12c0.15,1.89,2.01,2.79,4.14,2.79c1.56,0,2.82-0.21,4.05-0.6l0.6,3.09
			c-1.5,0.6-3.33,0.899-5.31,0.899c-4.98,0-7.83-2.88-7.83-7.47C8.59,79.11,10.9,75,16,75c4.74,0,6.54,3.69,6.54,7.32
			c0,0.779-0.09,1.47-0.15,1.8H12.94z M18.31,81c0-1.109-0.48-2.97-2.58-2.97c-1.92,0-2.7,1.74-2.82,2.97H18.31z"/>
		<path fill="#FFFFFF" d="M29.05,75.33l1.44,2.43c0.42,0.75,0.81,1.5,1.2,2.189h0.06c0.39-0.78,0.75-1.53,1.14-2.25l1.29-2.37h4.95
			l-4.83,6.99L39.19,90h-5.16l-1.47-2.64c-0.42-0.72-0.78-1.47-1.14-2.22h-0.09c-0.36,0.779-0.75,1.5-1.11,2.22L28.84,90h-5.01
			l4.98-7.47l-4.86-7.2H29.05z"/>
		<path fill="#FFFFFF" d="M41.801,80.25c0-1.919-0.06-3.569-0.12-4.919h3.96l0.21,2.04h0.06C46.99,75.81,48.67,75,50.8,75
			c3.21,0,6.09,2.79,6.09,7.47c0,5.34-3.39,7.859-6.66,7.859c-1.77,0-3.15-0.72-3.81-1.68h-0.06v7.289h-4.56V80.25z M46.36,83.7
			c0,0.36,0.03,0.69,0.09,0.96c0.3,1.23,1.35,2.16,2.67,2.16c1.98,0,3.15-1.65,3.15-4.141c0-2.34-1.05-4.109-3.09-4.109
			c-1.29,0-2.43,0.96-2.73,2.311c-0.06,0.239-0.09,0.539-0.09,0.81V83.7z"/>
		<path fill="#FFFFFF" d="M60.4,80.16c0-2.16-0.06-3.57-0.12-4.83h3.93l0.15,2.7h0.12C65.23,75.9,67.03,75,68.44,75
			c0.42,0,0.63,0,0.96,0.06v4.29c-0.33-0.06-0.72-0.12-1.23-0.12c-1.68,0-2.82,0.9-3.12,2.311c-0.06,0.299-0.09,0.659-0.09,1.02V90
			H60.4V80.16z"/>
		<path fill="#FFFFFF" d="M75.729,84.12c0.15,1.89,2.011,2.79,4.141,2.79c1.56,0,2.819-0.21,4.05-0.6l0.6,3.09
			c-1.5,0.6-3.33,0.899-5.31,0.899c-4.979,0-7.83-2.88-7.83-7.47c0-3.72,2.311-7.83,7.41-7.83c4.739,0,6.539,3.69,6.539,7.32
			c0,0.779-0.09,1.47-0.149,1.8H75.729z M81.1,81c0-1.109-0.479-2.97-2.58-2.97c-1.92,0-2.699,1.74-2.819,2.97H81.1z"/>
		<path fill="#FFFFFF" d="M88.69,86.009c0.84,0.51,2.58,1.11,3.93,1.11c1.38,0,1.95-0.479,1.95-1.229s-0.45-1.11-2.16-1.68
			c-3.029-1.021-4.199-2.67-4.17-4.411c0-2.73,2.34-4.8,5.97-4.8c1.71,0,3.24,0.39,4.141,0.84L97.54,78.99
			c-0.66-0.36-1.92-0.84-3.18-0.84c-1.11,0-1.74,0.45-1.74,1.2c0,0.69,0.57,1.05,2.37,1.68c2.79,0.96,3.96,2.37,3.99,4.53
			c0,2.729-2.16,4.739-6.36,4.739c-1.92,0-3.63-0.42-4.739-1.02L88.69,86.009z"/>
		<path fill="#FFFFFF" d="M102.37,86.009c0.84,0.51,2.58,1.11,3.93,1.11c1.38,0,1.95-0.479,1.95-1.229s-0.45-1.11-2.16-1.68
			c-3.029-1.021-4.199-2.67-4.17-4.411c0-2.73,2.34-4.8,5.97-4.8c1.71,0,3.24,0.39,4.141,0.84l-0.811,3.149
			c-0.66-0.36-1.92-0.84-3.18-0.84c-1.11,0-1.74,0.45-1.74,1.2c0,0.69,0.57,1.05,2.37,1.68c2.79,0.96,3.96,2.37,3.99,4.53
			c0,2.729-2.16,4.739-6.36,4.739c-1.92,0-3.63-0.42-4.739-1.02L102.37,86.009z"/>
		<path fill="#A6A09B" d="M113.05,92.7c1.2-0.09,2.13-0.36,2.7-0.96c0.66-0.69,0.9-1.86,0.9-4.77V75.33h4.589v12.719
			c0,3.21-0.72,5.16-2.069,6.42s-3.48,1.8-5.67,1.8L113.05,92.7z M121.359,71.25c0,1.26-0.93,2.28-2.46,2.28
			c-1.439,0-2.369-1.02-2.369-2.28c0-1.32,0.93-2.31,2.43-2.31C120.43,68.94,121.33,69.93,121.359,71.25z"/>
		<path fill="#A6A09B" d="M125.439,86.009c0.84,0.51,2.58,1.11,3.93,1.11c1.38,0,1.95-0.479,1.95-1.229s-0.45-1.11-2.16-1.68
			c-3.029-1.021-4.199-2.67-4.17-4.411c0-2.73,2.34-4.8,5.97-4.8c1.71,0,3.24,0.39,4.141,0.84l-0.811,3.149
			c-0.66-0.36-1.92-0.84-3.18-0.84c-1.11,0-1.74,0.45-1.74,1.2c0,0.69,0.57,1.05,2.37,1.68c2.79,0.96,3.96,2.37,3.99,4.53
			c0,2.729-2.16,4.739-6.36,4.739c-1.92,0-3.63-0.42-4.739-1.02L125.439,86.009z"/>
	</g>
</g>
</svg>
