<?xml version="1.0" encoding="utf-8"?>
<!-- Generator: Adobe Illustrator 16.0.0, SVG Export Plug-In . SVG Version: 6.00 Build 0)  -->
<!DOCTYPE svg PUBLIC "-//W3C//DTD SVG 1.1//EN" "http://www.w3.org/Graphics/SVG/1.1/DTD/svg11.dtd">
<svg version="1.1" xmlns="http://www.w3.org/2000/svg" xmlns:xlink="http://www.w3.org/1999/xlink" x="0px" y="0px" width="144px"
	 height="164px" viewBox="0 0 144 164" enable-background="new 0 0 144 164" xml:space="preserve">
<g id="Layer_1">
	<image overflow="visible" width="50" height="55" xlink:href="js3.png"  transform="matrix(2.88 0 0 2.9818 0 0)">
	</image>
</g>
<g id="Layer_2">
	<polygon fill="#E5A228" points="0.25,0.427 14.75,147.927 72.247,163.573 132.25,147.427 143.75,0.427 	"/>
	<polygon fill="#F1BF26" points="72.247,11.427 72.247,149.927 121.75,136.427 132.25,11.427 	"/>
	<polygon fill="#FFFFFF" points="40.583,21.594 108.917,21.594 112.583,59.261 94.583,59.261 90.917,40.427 55.25,40.427 
		53.25,67.594 112.583,67.594 108.917,120.26 72,132.26 36.583,120.927 36.583,93.927 51.583,93.927 51.917,105.927 72,115.26 
		92.583,105.594 92.583,86.26 36.583,84.594 	"/>
</g>
</svg>
