<?xml version="1.0" encoding="utf-8"?>
<!-- Generator: Adobe Illustrator 16.0.0, SVG Export Plug-In . SVG Version: 6.00 Build 0)  -->
<!DOCTYPE svg PUBLIC "-//W3C//DTD SVG 1.1//EN" "http://www.w3.org/Graphics/SVG/1.1/DTD/svg11.dtd">
<svg version="1.1" id="Layer_2" xmlns="http://www.w3.org/2000/svg" xmlns:xlink="http://www.w3.org/1999/xlink" x="0px" y="0px"
	 width="144px" height="164px" viewBox="0 0 144 164" enable-background="new 0 0 144 164" xml:space="preserve">
<path fill="#8CC84B" d="M43.917,56.594h9.667v68c0,0-4.334,18.666-22.334,13.333S2.917,122.593,2.917,119.26V52.927
	c0,0,1.334-8,6.667-10.667l51-30.725c0,0,11.333-6.392,23,0l53.334,32.392c0,0,4.667,0.667,4,11l0.065,60
	c0,0,1.935,5.666-5.065,10.333L90.25,152.463c0,0-20.992,13.589-36.667,0l-6.333-4.203l9-5.333c0,0,7.31,8.333,15.822,7.333
	s54.512-28.666,54.512-28.666s7.667-3.001,7-14.334s0-49.667,0-49.667s-1.001-5.333-7.334-8.667L77.583,20.261c0,0-2.333-5-10-0.333
	L18.25,48.261c0,0-5.667,1.333-5.333,13.333v56.333c0,0,30.334,21.333,30.667,5.333L43.917,56.594z"/>
<path fill="#8CC84B" d="M105.25,72.261h11c0,0-2.334-18.333-26.667-18.333s-27.333,14.333-26,24.667c1,4.667,17.333,9.334,34.333,11
	c18,4,11,19-6,18.333c-23,0-22.333-12-22.333-12l-8.667,0.333c0,0-4.333,18.334,30.333,19.667
	c35.333-2.667,31.666-29.855,13.333-33.928s-42.332-2.739-29.666-16.739C88.583,58.261,102.25,64.928,105.25,72.261z"/>
</svg>
